<svg width="26" height="5" viewBox="0 0 26 5" fill="none" xmlns="http://www.w3.org/2000/svg">
<path d="M1.34314 2.19H1.83814C1.97148 2.19 2.08314 2.16667 2.17314 2.12C2.26314 2.07333 2.33314 2.01667 2.38314 1.95C2.43648 1.88333 2.47314 1.81167 2.49314 1.735C2.51648 1.65833 2.52814 1.59 2.52814 1.53C2.52814 1.46667 2.51648 1.39833 2.49314 1.325C2.47314 1.24833 2.43648 1.17833 2.38314 1.115C2.32981 1.04833 2.25814 0.993333 2.16814 0.95C2.08148 0.906667 1.97314 0.885 1.84314 0.885H1.34314V2.19ZM0.793145 4V0.375H1.78314C1.97314 0.375 2.14648 0.4 2.30314 0.45C2.46314 0.5 2.59981 0.575 2.71314 0.675C2.82981 0.771667 2.91981 0.891666 2.98314 1.035C3.04648 1.175 3.07814 1.33667 3.07814 1.52C3.07814 1.66333 3.05648 1.80667 3.01314 1.95C2.96981 2.09 2.89981 2.21667 2.80314 2.33C2.70648 2.44 2.57981 2.53 2.42314 2.6C2.26648 2.67 2.07648 2.705 1.85314 2.705H1.34314V4H0.793145ZM3.94959 1.11C3.94959 1.03 3.97792 0.963333 4.03459 0.91C4.09459 0.856667 4.15792 0.83 4.22459 0.83C4.29126 0.83 4.35292 0.856667 4.40959 0.91C4.46626 0.963333 4.49459 1.03 4.49459 1.11C4.49459 1.19 4.46626 1.25667 4.40959 1.31C4.35292 1.36 4.29126 1.385 4.22459 1.385C4.15792 1.385 4.09459 1.36 4.03459 1.31C3.97792 1.25667 3.94959 1.19 3.94959 1.11ZM4.42959 4H4.00459V1.91H4.42959V4ZM6.92998 3.485C6.97665 3.54167 7.01998 3.59667 7.05998 3.65C7.10331 3.7 7.14665 3.75333 7.18998 3.81C7.09665 3.88333 6.99165 3.94167 6.87498 3.985C6.75831 4.02833 6.63165 4.05 6.49498 4.05C6.34165 4.05 6.19665 4.02167 6.05998 3.965C5.92665 3.905 5.80998 3.825 5.70998 3.725C5.60998 3.625 5.52998 3.50833 5.46998 3.375C5.41331 3.24167 5.38498 3.1 5.38498 2.95C5.38498 2.8 5.41331 2.65833 5.46998 2.525C5.52998 2.39167 5.60998 2.27667 5.70998 2.18C5.80998 2.08 5.92665 2.00167 6.05998 1.945C6.19665 1.885 6.34165 1.855 6.49498 1.855C6.63498 1.855 6.76331 1.87667 6.87998 1.92C6.99998 1.96333 7.10831 2.02167 7.20498 2.095L6.92998 2.42C6.87331 2.37333 6.80831 2.33833 6.73498 2.315C6.66165 2.28833 6.58165 2.275 6.49498 2.275C6.39498 2.275 6.30331 2.29333 6.21998 2.33C6.13665 2.36333 6.06331 2.41 5.99998 2.47C5.93998 2.53 5.89331 2.60167 5.85998 2.685C5.82665 2.765 5.80998 2.85333 5.80998 2.95C5.80998 3.04667 5.82665 3.13667 5.85998 3.22C5.89331 3.3 5.93998 3.37167 5.99998 3.435C6.06331 3.495 6.13665 3.54333 6.21998 3.58C6.30331 3.61333 6.39498 3.63 6.49498 3.63C6.58165 3.63 6.66165 3.61833 6.73498 3.595C6.80831 3.56833 6.87331 3.53167 6.92998 3.485ZM9.59506 1.855L9.85006 2.11C9.72339 2.22667 9.60173 2.34 9.48506 2.45C9.37173 2.56 9.25173 2.675 9.12506 2.795C9.27506 2.995 9.42173 3.19667 9.56506 3.4C9.70839 3.6 9.85339 3.8 10.0001 4H9.51006C9.39673 3.84333 9.28173 3.69 9.16506 3.54C9.05173 3.38667 8.93839 3.23167 8.82506 3.075L8.53506 3.34V4H8.11006V0.115H8.53506V2.84C8.72173 2.67 8.90006 2.50667 9.07006 2.35C9.24006 2.19 9.41506 2.025 9.59506 1.855ZM10.8596 4V0.375H13.0296V0.88H11.4046V1.975H12.8246V2.485H11.4046V4H10.8596ZM13.5696 2.95C13.5696 2.8 13.5979 2.65833 13.6546 2.525C13.7146 2.39167 13.7946 2.27667 13.8946 2.18C13.9946 2.08 14.1112 2.00167 14.2446 1.945C14.3812 1.885 14.5279 1.855 14.6846 1.855C14.8412 1.855 14.9862 1.885 15.1196 1.945C15.2562 2.00167 15.3729 2.08 15.4696 2.18C15.5696 2.27667 15.6462 2.39167 15.6996 2.525C15.7562 2.65833 15.7846 2.8 15.7846 2.95C15.7846 3.1 15.7562 3.24167 15.6996 3.375C15.6462 3.50833 15.5696 3.625 15.4696 3.725C15.3729 3.825 15.2562 3.905 15.1196 3.965C14.9862 4.02167 14.8396 4.05 14.6796 4.05C14.5262 4.05 14.3812 4.02333 14.2446 3.97C14.1112 3.91667 13.9946 3.84167 13.8946 3.745C13.7946 3.64833 13.7146 3.53333 13.6546 3.4C13.5979 3.26333 13.5696 3.11333 13.5696 2.95ZM13.9946 2.955C13.9946 3.04833 14.0112 3.13667 14.0446 3.22C14.0812 3.3 14.1296 3.37167 14.1896 3.435C14.2529 3.495 14.3246 3.54333 14.4046 3.58C14.4879 3.61333 14.5762 3.63 14.6696 3.63C14.7629 3.63 14.8512 3.61333 14.9346 3.58C15.0179 3.54333 15.0896 3.495 15.1496 3.435C15.2129 3.37167 15.2629 3.3 15.2996 3.22C15.3362 3.13667 15.3546 3.04833 15.3546 2.955C15.3546 2.86167 15.3362 2.77333 15.2996 2.69C15.2629 2.60667 15.2129 2.535 15.1496 2.475C15.0896 2.41167 15.0179 2.36333 14.9346 2.33C14.8512 2.29333 14.7629 2.275 14.6696 2.275C14.5762 2.275 14.4879 2.29333 14.4046 2.33C14.3246 2.36333 14.2529 2.41167 14.1896 2.475C14.1296 2.535 14.0812 2.60667 14.0446 2.69C14.0112 2.77333 13.9946 2.86167 13.9946 2.955ZM17.889 2.405C17.7956 2.405 17.7056 2.41833 17.619 2.445C17.5323 2.46833 17.454 2.505 17.384 2.555C17.3173 2.605 17.264 2.66833 17.224 2.745C17.184 2.81833 17.164 2.90333 17.164 3V4H16.739V1.91H17.114C17.1206 2.01333 17.1256 2.10833 17.129 2.195C17.1356 2.27833 17.1423 2.36167 17.149 2.445C17.1923 2.355 17.249 2.27333 17.319 2.2C17.389 2.12667 17.464 2.065 17.544 2.015C17.624 1.965 17.7023 1.92667 17.779 1.9C17.8556 1.87 17.924 1.855 17.984 1.855L17.889 2.405ZM18.8586 0.215C18.8886 0.261667 18.9502 0.351667 19.0436 0.485C19.1402 0.615 19.2502 0.766666 19.3736 0.94C19.5002 1.11333 19.6336 1.29833 19.7736 1.495C19.9136 1.68833 20.0452 1.87167 20.1686 2.045C20.2919 2.215 20.3986 2.36333 20.4886 2.49C20.5819 2.61667 20.6436 2.7 20.6736 2.74C20.6836 2.72333 20.7152 2.67833 20.7686 2.605C20.8219 2.53167 20.8869 2.44 20.9636 2.33C21.0436 2.22 21.1336 2.09667 21.2336 1.96C21.3336 1.82 21.4352 1.67833 21.5386 1.535C21.6452 1.38833 21.7486 1.24333 21.8486 1.1C21.9519 0.956667 22.0469 0.826666 22.1336 0.71C22.2202 0.59 22.2936 0.486667 22.3536 0.4C22.4169 0.31 22.4619 0.248333 22.4886 0.215V4H21.9086V1.97C21.9086 1.94333 21.9102 1.915 21.9136 1.885C21.9202 1.855 21.9236 1.83333 21.9236 1.82C21.8936 1.86 21.8452 1.92833 21.7786 2.025C21.7152 2.11833 21.6402 2.22667 21.5536 2.35C21.4702 2.47 21.3819 2.59833 21.2886 2.735C21.1952 2.86833 21.1069 2.995 21.0236 3.115C20.9402 3.235 20.8669 3.34167 20.8036 3.435C20.7402 3.525 20.6969 3.58833 20.6736 3.625C20.6502 3.595 20.6036 3.53333 20.5336 3.44C20.4669 3.34333 20.3869 3.23167 20.2936 3.105C20.2036 2.97833 20.1069 2.84333 20.0036 2.7C19.9036 2.55667 19.8102 2.42333 19.7236 2.3C19.6369 2.17667 19.5619 2.07167 19.4986 1.985C19.4352 1.895 19.3986 1.84 19.3886 1.82C19.3886 1.83333 19.3902 1.855 19.3936 1.885C19.4002 1.915 19.4036 1.94333 19.4036 1.97V4H18.8586V0.215ZM25.4074 3.755C25.3074 3.845 25.1857 3.91667 25.0424 3.97C24.8991 4.02333 24.7524 4.05 24.6024 4.05C24.4491 4.05 24.3041 4.02167 24.1674 3.965C24.0341 3.905 23.9174 3.82667 23.8174 3.73C23.7174 3.63 23.6374 3.51333 23.5774 3.38C23.5207 3.24667 23.4924 3.105 23.4924 2.955C23.4924 2.805 23.5207 2.66333 23.5774 2.53C23.6374 2.39667 23.7174 2.28 23.8174 2.18C23.9174 2.08 24.0324 2.00167 24.1624 1.945C24.2957 1.885 24.4374 1.855 24.5874 1.855C24.8241 1.855 25.0291 1.92667 25.2024 2.07C25.3791 2.21 25.5057 2.395 25.5824 2.625C25.4791 2.66167 25.3607 2.70667 25.2274 2.76C25.0941 2.81333 24.9557 2.87 24.8124 2.93C24.6691 2.98667 24.5257 3.04333 24.3824 3.1C24.2391 3.15667 24.1057 3.20833 23.9824 3.255C24.0391 3.36833 24.1207 3.46 24.2274 3.53C24.3374 3.59667 24.4591 3.63 24.5924 3.63C24.6824 3.63 24.7724 3.61333 24.8624 3.58C24.9557 3.54667 25.0307 3.50167 25.0874 3.445L25.4074 3.755ZM25.0474 2.525C25.0074 2.44167 24.9441 2.38 24.8574 2.34C24.7707 2.29667 24.6824 2.275 24.5924 2.275C24.4957 2.275 24.4057 2.29333 24.3224 2.33C24.2424 2.36667 24.1724 2.41667 24.1124 2.48C24.0524 2.54 24.0041 2.61 23.9674 2.69C23.9341 2.77 23.9174 2.85167 23.9174 2.935C23.9174 2.95167 23.9174 2.96333 23.9174 2.97C23.9207 2.97667 23.9224 2.98167 23.9224 2.985C24.0091 2.95167 24.1024 2.915 24.2024 2.875C24.3057 2.83167 24.4074 2.79 24.5074 2.75C24.6074 2.70667 24.7041 2.66667 24.7974 2.63C24.8907 2.59 24.9741 2.555 25.0474 2.525Z" fill="black"/>
</svg>
